<?xml version="1.0" standalone="no"?>
<!DOCTYPE svg PUBLIC "-//W3C//DTD SVG 20010904//EN"
 "http://www.w3.org/TR/2001/REC-SVG-20010904/DTD/svg10.dtd">
<svg version="1.0" xmlns="http://www.w3.org/2000/svg"
 width="1908.000000pt" height="954.000000pt" viewBox="0 0 1908.000000 954.000000"
 preserveAspectRatio="xMidYMid meet">
<metadata>
Created by potrace 1.16, written by Peter Selinger 2001-2019
</metadata>
<g transform="translate(0.000000,954.000000) scale(0.100000,-0.100000)"
fill="#000000" stroke="none">
<path d="M3905 9534 c-16 -2 -77 -9 -135 -15 -643 -68 -1325 -341 -1873 -753
-187 -140 -309 -247 -487 -425 -809 -813 -1302 -1926 -1399 -3160 -14 -174
-14 -648 0 -822 94 -1194 554 -2266 1326 -3087 648 -689 1490 -1128 2393
-1248 193 -25 634 -30 840 -9 470 48 876 164 1305 375 415 204 761 454 1106
799 526 527 906 1151 1154 1896 185 556 268 1079 268 1685 0 582 -81 1111
-250 1635 -250 773 -637 1412 -1182 1955 -653 651 -1404 1028 -2296 1156 -104
15 -691 29 -770 18z m97 -266 c40 -12 102 -71 95 -91 -2 -6 -16 -15 -32 -20
-24 -8 -31 -6 -45 10 -41 51 -104 57 -152 14 -32 -29 -33 -31 -33 -113 0 -48
6 -97 14 -116 36 -85 167 -79 186 9 6 28 9 30 38 24 47 -10 49 -16 24 -65 -74
-148 -284 -120 -332 44 -31 102 -13 198 47 258 54 54 115 69 190 46z m345
-145 c-4 -87 -7 -186 -7 -220 l0 -63 -41 0 -42 0 7 92 c3 50 6 149 6 220 l0
128 42 0 41 0 -6 -157z m461 94 c60 -39 86 -95 87 -183 0 -95 -40 -177 -104
-213 -80 -44 -189 -26 -248 43 -42 47 -57 96 -50 172 7 87 39 149 96 186 41
26 53 29 112 26 52 -3 75 -10 107 -31z m-1262 -222 c116 -178 122 -190 101
-197 -44 -12 -57 -8 -83 32 -16 23 -35 40 -46 40 -33 0 -153 -33 -160 -44 -4
-6 -8 -27 -8 -47 0 -40 -11 -53 -52 -63 -19 -4 -28 -2 -28 6 -1 7 14 113 32
235 29 202 34 223 53 226 59 13 62 10 191 -188z m1640 140 c1 -5 22 -83 45
-173 23 -89 44 -160 46 -158 3 3 22 66 43 141 22 76 41 139 43 142 3 2 18 -2
35 -9 l29 -13 -57 -203 c-32 -112 -60 -205 -62 -207 -2 -3 -20 0 -39 5 -33 9
-35 13 -57 97 -54 208 -65 243 -71 243 -3 0 -21 -56 -40 -124 -18 -68 -36
-129 -41 -135 -5 -9 -17 -10 -37 -4 l-31 8 52 185 c29 102 56 197 59 212 7 25
8 26 43 15 20 -6 38 -16 40 -22z m-2139 -156 c19 -51 52 -142 73 -201 l39
-108 -39 -11 -38 -12 -127 103 c-69 56 -129 100 -132 97 -2 -3 16 -63 41 -132
25 -70 46 -130 46 -134 0 -4 -14 -12 -31 -18 -23 -9 -31 -9 -34 0 -3 7 -31 86
-64 177 -33 91 -64 178 -70 193 -10 26 -9 29 24 43 l36 15 130 -107 c72 -58
133 -104 136 -100 3 3 -15 63 -41 133 -25 71 -46 132 -46 136 0 9 41 27 54 23
5 -1 25 -45 43 -97z m2769 -97 c-2 -9 -8 -111 -11 -227 -4 -115 -9 -213 -12
-217 -2 -4 -19 0 -38 9 -32 15 -34 19 -37 75 l-3 58 -79 37 -78 37 -34 -39
-33 -39 -37 17 -37 18 163 164 163 164 39 -20 c28 -14 38 -25 34 -37z m335
-171 l27 -13 -96 -159 c-52 -88 -93 -161 -91 -162 2 -1 43 -28 92 -60 77 -51
86 -60 77 -77 -5 -10 -14 -21 -19 -24 -10 -7 -241 142 -241 156 0 9 181 317
203 346 6 7 13 11 16 10 3 -2 18 -10 32 -17z m-3806 -56 c51 -39 103 -122 117
-187 11 -52 10 -59 -13 -104 -19 -38 -43 -61 -114 -110 -68 -47 -93 -60 -101
-51 -16 17 -214 346 -214 355 0 7 163 115 190 126 32 12 100 -2 135 -29z
m2275 -49 c729 -116 1344 -439 1870 -983 597 -616 971 -1430 1087 -2363 25
-207 25 -773 0 -980 -116 -932 -486 -1740 -1083 -2359 -555 -576 -1258 -927
-2003 -1001 -133 -13 -449 -13 -582 0 -1513 149 -2766 1433 -3049 3122 -47
284 -55 389 -55 728 0 339 8 444 55 728 188 1120 815 2101 1698 2654 245 153
541 287 802 362 182 52 341 82 580 110 93 11 580 -3 680 -18z m-2672 -375
c106 -57 192 -107 192 -111 0 -3 -11 -17 -26 -30 l-25 -24 -47 26 -48 27 -69
-63 -68 -62 18 -48 18 -47 -30 -30 -30 -30 -74 220 -74 220 30 31 c16 16 32
29 35 28 3 -2 92 -50 198 -107z m4819 7 c77 -80 103 -122 103 -166 0 -108
-115 -240 -218 -249 -40 -4 -54 0 -92 26 -25 16 -71 56 -103 88 l-57 59 140
157 c78 86 145 157 149 157 4 0 39 -33 78 -72z m-5234 -274 c60 -31 115 -84
141 -136 31 -61 33 -101 8 -149 -21 -42 -132 -179 -144 -179 -10 0 -301 267
-306 280 -4 10 104 136 148 173 37 32 102 36 153 11z m5632 -169 c50 -64 91
-119 93 -124 1 -4 -8 -15 -21 -24 -23 -15 -24 -13 -92 74 -38 49 -74 89 -80
89 -6 0 -26 -15 -44 -34 l-33 -34 58 -74 c31 -40 62 -79 67 -85 6 -9 2 -19
-14 -32 l-23 -19 -59 77 c-33 42 -63 80 -67 85 -10 10 -26 1 -74 -42 l-37 -32
76 -97 c71 -91 74 -97 59 -115 -10 -10 -21 -18 -25 -18 -10 0 -200 243 -196
252 4 12 302 267 312 267 6 1 51 -51 100 -114z m-5717 -421 c4 -2 -8 -25 -27
-53 -7 -12 -44 12 -180 113 l-170 128 21 32 22 33 165 -125 c91 -69 167 -127
169 -128z m5956 57 c-5 -4 -67 -47 -139 -96 -71 -48 -134 -91 -139 -96 -4 -4
15 -47 44 -96 29 -48 55 -91 56 -94 2 -4 -7 -14 -20 -23 l-25 -16 -75 124
c-42 67 -76 126 -76 129 0 4 77 59 172 122 l172 115 20 -31 c10 -17 15 -34 10
-38z m-6356 -80 c22 -14 -12 -71 -42 -71 -14 0 -32 -3 -41 -6 -23 -9 -58 -82
-51 -109 13 -51 62 -37 136 40 25 26 58 53 74 62 39 20 88 9 125 -28 55 -54
51 -134 -9 -218 -43 -59 -85 -83 -134 -76 -55 8 -57 11 -39 50 14 30 19 33 49
28 79 -13 142 131 74 167 -27 14 -62 -5 -125 -69 -61 -63 -99 -78 -148 -57
-41 17 -67 59 -67 109 0 47 49 137 89 164 34 23 85 30 109 14z m-224 -445 c46
-19 66 -51 66 -108 0 -27 2 -48 3 -48 2 0 18 7 36 16 17 9 67 21 110 28 l79
13 -15 -36 c-8 -20 -19 -40 -23 -45 -4 -4 -50 -16 -102 -27 -74 -15 -98 -24
-115 -44 -38 -44 -31 -58 52 -94 41 -18 75 -38 75 -45 -1 -6 -6 -23 -13 -38
l-12 -27 -187 87 c-103 48 -188 92 -188 98 0 15 85 208 104 236 33 46 75 57
130 34z m6892 -75 c41 -25 84 -111 84 -168 0 -49 -21 -97 -48 -112 -15 -8 -20
-4 -30 23 -11 28 -10 38 5 63 16 29 16 33 -1 77 -21 54 -55 78 -82 55 -14 -11
-15 -28 -9 -121 8 -126 0 -157 -52 -189 -86 -53 -181 15 -212 151 -12 54 2
101 41 141 l31 31 18 -34 c17 -32 17 -34 -1 -53 -30 -33 -34 -68 -12 -118 21
-47 47 -63 87 -53 31 8 35 33 23 134 -10 77 -9 91 7 125 30 64 92 84 151 48z
m-7157 -400 c12 -8 10 -26 -17 -113 -18 -57 -32 -109 -32 -115 0 -9 90 -48 95
-40 2 1 17 49 34 105 32 103 32 104 59 97 15 -4 28 -8 29 -9 1 -1 -11 -46 -28
-100 -17 -54 -28 -103 -26 -110 4 -10 107 -50 113 -43 1 1 18 55 38 119 l36
117 29 -10 29 -10 -24 -77 c-13 -42 -34 -110 -46 -151 -12 -40 -27 -75 -33
-77 -9 -4 -255 74 -381 120 -8 3 3 54 34 155 47 153 54 165 91 142z m7221
-142 c85 -6 157 -13 160 -16 2 -2 10 -22 16 -43 l11 -38 -169 -143 c-93 -79
-173 -145 -177 -147 -4 -1 -12 15 -17 35 -9 36 -8 40 30 74 l40 36 -25 84 -24
84 -54 10 c-55 11 -69 24 -70 69 -1 17 5 18 62 12 34 -3 132 -11 217 -17z
m-7034 -543 c7 -7 8 -25 2 -52 l-9 -41 -177 -22 c-97 -13 -197 -25 -221 -28
l-44 -6 7 39 c5 21 9 41 11 43 2 2 77 12 166 22 89 10 164 20 166 23 3 2 -12
15 -34 29 -21 13 -86 54 -144 91 l-107 66 10 39 10 39 176 -115 c98 -64 182
-121 188 -127z m7317 82 c5 -31 -2 -40 -121 -160 -70 -71 -124 -128 -121 -128
3 0 67 14 143 30 77 17 140 29 141 28 1 -2 5 -18 8 -35 6 -29 3 -34 -18 -39
-81 -20 -381 -82 -384 -79 -2 2 -7 19 -11 37 -7 32 -3 37 114 156 76 77 114
122 103 122 -9 0 -69 -11 -133 -25 -64 -14 -119 -23 -124 -20 -4 3 -10 18 -12
35 -4 29 -4 30 66 45 276 60 332 72 337 69 4 -2 9 -18 12 -36z m-7564 -400
l193 -31 -6 -35 c-3 -19 -7 -36 -9 -38 -2 -2 -94 10 -205 28 l-202 32 0 31 c0
33 6 45 24 45 6 0 98 -14 205 -32z m7663 -209 c24 -203 24 -199 -11 -199 -29
0 -30 1 -36 65 l-7 65 -32 -5 c-38 -7 -321 -43 -322 -41 -1 0 -4 18 -7 38 -7
45 -18 41 173 63 182 21 181 21 176 48 -3 12 -7 41 -10 64 -5 37 -4 42 16 46
13 2 27 3 33 2 5 -1 17 -66 27 -146z m-7508 -60 c3 -3 3 -22 -1 -42 -6 -37 -8
-39 -155 -113 -82 -42 -148 -77 -146 -79 2 -2 50 -8 108 -15 178 -19 170 -16
170 -55 0 -22 -5 -35 -13 -35 -7 0 -100 9 -207 20 -107 11 -195 20 -197 20 -2
0 -3 17 -3 38 l0 37 154 80 c85 44 149 83 143 86 -7 3 -70 12 -142 18 -71 7
-131 13 -132 15 -1 1 0 18 3 37 l6 35 203 -21 c112 -11 206 -23 209 -26z
m7529 -364 c14 -6 17 -17 15 -51 l-3 -44 -198 -95 c-108 -52 -200 -95 -202
-95 -3 0 -5 18 -5 40 0 38 3 42 45 62 l45 22 0 60 c0 34 -3 77 -6 97 -6 33
-11 38 -53 51 -44 13 -46 15 -49 56 l-3 42 198 -69 c109 -38 206 -72 216 -76z
m-7634 -153 c45 -22 71 -73 71 -138 0 -80 -10 -114 -45 -149 -41 -41 -92 -48
-261 -39 l-124 7 0 39 0 39 160 -3 c154 -2 161 -2 183 20 17 17 22 34 22 73 0
76 -21 89 -140 89 -50 0 -120 3 -154 6 l-61 7 0 39 0 40 158 -7 c114 -5 166
-11 191 -23z m906 -2466 c72 -47 105 -149 70 -216 l-17 -33 -24 25 c-22 21
-23 28 -14 53 7 20 8 37 0 60 -25 74 -86 92 -170 48 -94 -50 -127 -131 -76
-190 20 -23 32 -28 69 -28 42 0 46 -2 55 -32 10 -32 9 -33 -23 -39 -48 -9 -99
11 -139 56 -85 94 -59 217 61 287 75 44 150 47 208 9z m5661 -167 c141 -96
164 -120 164 -170 0 -50 -29 -107 -75 -147 -46 -41 -73 -47 -121 -27 -47 19
-254 156 -254 168 0 4 7 18 16 32 l15 23 116 -79 c151 -103 198 -106 232 -16
18 47 -1 70 -128 156 l-121 82 16 24 c9 14 21 25 26 25 5 0 57 -32 114 -71z
m-5377 -213 l22 -23 -61 -54 -60 -54 58 -65 59 -64 58 52 59 52 23 -22 c13
-12 22 -25 21 -28 -2 -4 -67 -64 -146 -134 l-143 -128 -26 23 -25 24 68 61 67
62 -53 61 c-29 34 -57 61 -62 61 -6 0 -37 -25 -71 -55 l-62 -55 -24 25 -24 24
54 48 c29 26 94 85 144 130 49 45 93 82 96 83 3 0 16 -11 28 -24z m5038 -201
c31 -31 34 -40 30 -73 -3 -20 -8 -46 -12 -58 -6 -18 -3 -20 24 -16 34 5 169
-16 176 -27 2 -5 -8 -20 -24 -35 l-27 -26 -80 15 c-104 20 -114 19 -149 -10
l-30 -24 62 -61 62 -61 -22 -25 -22 -25 -143 136 -142 137 63 70 c112 127 170
147 234 83z m-4658 -222 c-8 -10 -66 -76 -128 -146 -108 -121 -115 -127 -135
-114 -11 8 -21 20 -21 27 0 7 56 77 125 156 l125 143 24 -24 c22 -22 23 -26
10 -42z m4219 -75 c22 -22 12 -36 -68 -95 -43 -32 -79 -63 -80 -68 0 -6 13
-26 29 -45 l28 -34 76 57 c42 31 80 57 84 57 5 0 14 -9 21 -20 11 -18 5 -25
-66 -77 -42 -31 -79 -58 -81 -60 -5 -3 47 -79 63 -92 7 -6 40 12 99 56 72 54
90 63 102 53 8 -7 15 -18 15 -24 0 -11 -196 -161 -224 -172 -13 -5 -239 292
-234 306 3 9 209 168 219 169 3 1 10 -4 17 -11z m-3992 -75 c24 -16 44 -30 44
-33 0 -3 -20 -65 -44 -138 -25 -73 -42 -132 -38 -132 4 0 54 42 112 94 l105
93 46 -31 46 -30 -108 -163 c-60 -90 -113 -163 -117 -163 -10 1 -42 26 -42 34
0 3 38 63 85 133 46 70 83 129 80 131 -2 2 -59 -46 -126 -106 l-122 -111 -28
20 -28 20 54 154 c30 85 51 155 47 155 -4 0 -45 -59 -92 -130 l-86 -129 -27
17 -26 18 107 162 c59 89 109 162 111 162 2 0 23 -12 47 -27z m3584 -236 c33
-17 70 -74 70 -109 0 -49 -25 -82 -94 -122 -36 -21 -66 -40 -66 -43 0 -2 14
-31 31 -65 l31 -62 -22 -18 c-12 -10 -25 -18 -29 -18 -8 0 -181 332 -181 346
0 14 181 103 210 103 14 1 36 -5 50 -12z m-3027 -85 c103 -49 147 -86 147
-124 0 -36 -29 -76 -64 -89 l-35 -13 20 -24 c31 -39 25 -88 -15 -128 -46 -46
-75 -44 -205 12 -58 26 -108 48 -110 50 -3 3 151 363 156 364 1 0 49 -22 106
-48z m582 -201 c81 -37 124 -120 105 -204 -21 -96 -56 -147 -117 -173 -99 -42
-235 22 -263 124 -23 87 25 208 99 251 45 26 122 27 176 2z m483 -82 c115 -10
142 -15 137 -27 -3 -7 -5 -21 -5 -29 0 -13 -10 -15 -59 -10 l-58 6 -6 -47 c-4
-26 -12 -103 -18 -170 l-12 -124 -30 6 c-17 3 -33 8 -35 11 -5 5 14 243 25
303 5 31 5 32 -33 32 -67 0 -84 9 -84 42 0 23 4 28 18 24 9 -2 81 -10 160 -17z
m610 -36 l-3 -28 -107 -3 -108 -3 0 -27 c0 -71 3 -72 112 -72 l99 0 -3 -27 -3
-28 -97 -3 -98 -3 0 -60 0 -61 115 4 115 3 0 -26 c0 -22 -5 -28 -32 -32 -43
-8 -255 -13 -261 -7 -3 3 -8 91 -12 197 l-7 192 39 4 c21 2 87 4 146 5 l108 2
-3 -27z"/>
<path d="M4627 9160 c-38 -30 -60 -98 -55 -170 5 -70 30 -104 89 -121 31 -10
43 -9 75 7 48 24 74 67 81 137 7 66 -9 120 -44 147 -35 27 -111 27 -146 0z"/>
<path d="M2185 8595 c-83 -44 -83 -36 0 -170 41 -66 76 -124 78 -130 5 -12
105 52 117 76 19 34 11 92 -19 144 -58 101 -100 120 -176 80z"/>
<path d="M2446 7533 c-3 -21 -6 -100 -6 -175 0 -145 16 -248 50 -326 19 -41
20 -67 20 -369 l0 -325 -32 7 c-47 11 -161 8 -210 -5 -60 -17 -151 -64 -193
-102 -73 -63 -163 -221 -208 -363 -34 -108 -51 -257 -43 -380 8 -112 44 -307
77 -405 89 -271 325 -543 585 -673 86 -43 104 -72 79 -130 -53 -127 -61 -563
-14 -793 16 -82 25 -88 121 -94 l83 -5 8 -65 c7 -62 2 -202 -10 -262 l-5 -28
-108 0 c-149 0 -142 11 -153 -242 -9 -219 -6 -238 49 -258 31 -12 395 -13 446
-1 33 8 36 7 29 -8 -16 -28 -133 -135 -218 -198 -45 -34 -132 -89 -192 -124
-90 -52 -111 -68 -111 -87 0 -12 7 -25 16 -29 14 -5 140 19 182 34 7 3 12 -3
12 -15 0 -12 5 -24 10 -27 19 -11 230 36 313 70 17 7 18 6 6 -12 -20 -32 -5
-53 38 -53 73 0 246 49 350 100 196 96 330 232 454 463 48 88 50 90 43 47 -31
-209 -114 -381 -253 -523 -47 -48 -86 -92 -85 -97 1 -6 2 -14 3 -20 4 -29 60
-5 159 67 128 93 217 175 279 257 57 76 137 239 160 329 16 61 33 89 33 53 0
-29 54 -175 93 -251 77 -149 181 -260 374 -399 93 -66 135 -81 147 -50 8 21 2
30 -67 93 -136 127 -243 341 -271 546 l-7 50 43 -85 c120 -236 270 -391 471
-485 100 -47 240 -86 317 -88 64 -2 65 -2 68 26 2 16 -1 27 -9 27 -7 0 -10 2
-7 5 2 3 38 -6 78 -20 85 -29 235 -59 250 -50 5 3 10 15 10 26 0 10 1 19 3 19
1 0 36 -9 77 -20 90 -24 126 -25 134 -5 10 26 -4 42 -67 76 -158 84 -391 261
-446 338 l-21 28 44 -9 c24 -5 135 -8 246 -6 l202 3 25 29 25 30 -7 195 c-9
255 -2 245 -153 249 l-111 3 -7 57 c-10 71 -10 215 0 265 l7 37 70 0 c39 0 79
5 89 10 80 43 98 701 24 878 -24 57 -6 86 80 129 304 152 527 433 611 768 82
325 68 593 -43 826 -85 178 -178 271 -321 319 -64 21 -188 29 -245 14 l-27 -6
4 333 3 334 29 75 c27 71 29 85 33 260 2 102 0 196 -5 208 -9 22 -12 19 -43
-40 -80 -152 -229 -349 -230 -304 0 31 -39 90 -75 115 -85 58 -217 91 -445
111 -158 14 -1766 13 -1923 -1 -158 -14 -307 -44 -380 -76 -65 -29 -122 -86
-132 -133 -7 -31 -7 -31 -27 -13 -41 37 -137 174 -187 267 -29 53 -54 96 -55
96 -2 0 -6 -17 -10 -37z m1069 -233 l69 -70 -226 0 c-145 0 -236 -4 -251 -11
-29 -13 -47 -48 -47 -88 l0 -28 -92 4 c-160 8 -188 23 -173 93 13 59 101 105
257 135 90 17 235 31 333 34 l61 1 69 -70z m1232 -36 c-60 -58 -124 -112 -143
-120 -27 -11 -107 -14 -404 -14 -346 0 -373 1 -408 19 -20 11 -84 64 -142 120
l-105 100 655 0 655 0 -108 -105z m408 96 c299 -28 455 -89 455 -178 0 -58
-24 -68 -182 -75 l-88 -5 0 38 c0 22 -8 47 -19 61 -19 24 -21 24 -262 27
l-242 3 69 70 c79 79 70 77 269 59z m643 -181 c-59 -107 -145 -169 -258 -189
-36 -6 -135 -10 -220 -8 l-155 3 -3 40 c-3 40 -25 75 -46 75 -6 0 -19 14 -28
30 l-17 30 99 0 100 0 0 -43 c0 -73 14 -79 172 -75 119 3 139 6 189 29 31 15
85 54 120 87 35 34 65 61 67 62 2 0 -7 -19 -20 -41z m-3031 -106 c53 -26 69
-28 191 -31 155 -4 169 2 174 72 l3 41 97 3 97 3 -17 -31 c-9 -16 -22 -30 -28
-30 -20 0 -38 -30 -43 -73 l-6 -42 -195 1 c-178 0 -200 2 -253 23 -67 26 -144
97 -177 162 l-23 44 61 -57 c34 -31 87 -69 119 -85z m3107 75 c-39 -130 -92
-202 -173 -241 -44 -21 -60 -22 -376 -25 l-330 -3 35 22 c19 12 40 29 46 38
11 14 14 14 34 -4 20 -18 39 -20 175 -23 187 -5 309 9 381 42 66 30 139 98
179 165 33 56 40 62 29 29z m-3311 -41 c35 -59 108 -124 172 -153 71 -33 194
-46 380 -42 134 3 156 5 174 22 21 19 22 19 49 -7 15 -14 38 -30 52 -36 18 -7
-74 -10 -310 -8 l-335 2 -49 25 c-62 32 -120 98 -146 166 -32 86 -26 99 13 31z
m953 -1 c37 -37 42 -62 20 -105 -29 -56 -102 -67 -147 -22 -46 47 -38 115 19
145 43 24 71 19 108 -18z m1502 -1 c32 -38 30 -89 -7 -126 -47 -47 -117 -34
-146 27 -20 43 -11 77 28 110 39 33 91 28 125 -11z m-1253 -24 c25 -14 89 -16
405 -19 206 -2 394 0 417 3 23 3 61 19 85 35 l43 29 6 -22 c4 -12 13 -44 19
-70 7 -26 28 -72 46 -102 l33 -55 -619 0 -619 0 34 56 c19 31 42 87 52 125
l17 68 26 -16 c14 -9 39 -24 55 -32z m-1140 -231 c23 -39 84 -105 102 -111 9
-3 11 -16 5 -49 -22 -121 56 -237 204 -306 28 -13 324 -106 658 -206 l607
-181 597 178 c328 97 629 192 669 210 154 71 228 190 198 323 -5 24 -3 32 7
32 19 0 65 45 84 83 19 37 44 67 56 67 4 0 8 -130 8 -289 0 -266 -1 -289 -17
-293 -10 -3 -166 -87 -348 -186 l-329 -182 -36 85 c-19 47 -38 85 -42 85 -3 0
-194 -101 -425 -226 l-418 -225 -35 16 c-19 10 -210 111 -423 226 -213 115
-392 207 -396 204 -5 -2 -23 -40 -41 -84 -18 -44 -36 -79 -39 -77 -3 2 -155
85 -337 185 -182 99 -336 181 -342 181 -9 0 -12 73 -12 291 0 309 2 321 45
249z m316 -40 l169 0 -43 -43 -42 -44 -35 34 c-20 18 -43 33 -51 33 -9 0 -41
-18 -72 -39 l-55 -39 5 33 c5 31 3 35 -38 54 -24 12 -36 19 -26 16 10 -3 95
-5 188 -5z m2680 -12 c-39 -18 -43 -23 -39 -49 3 -16 2 -29 0 -29 -3 0 -27 16
-53 35 -27 19 -58 35 -68 35 -11 0 -33 -16 -49 -35 l-29 -36 -45 45 -45 46
176 3 c97 1 181 3 186 4 6 1 -10 -8 -34 -19z m-456 -12 c118 -44 175 -114 175
-214 0 -57 -11 -92 -43 -139 -26 -39 -32 -40 -48 -12 -9 17 -7 26 9 49 55 74
49 163 -14 224 -73 71 -32 68 -1044 68 -956 0 -946 0 -1015 -45 -46 -30 -68
-65 -73 -118 -6 -61 2 -90 32 -126 23 -28 24 -30 7 -52 l-18 -24 -25 34 c-32
44 -48 91 -48 146 0 80 43 143 125 186 88 46 90 46 1035 44 848 -2 898 -3 945
-21z m-2175 -220 c0 -29 7 -72 15 -95 14 -42 14 -42 -8 -36 -26 8 -92 46 -126
73 l-24 19 34 25 c72 52 94 67 102 68 4 0 7 -24 7 -54z m2493 12 c34 -22 64
-43 67 -45 11 -10 -100 -84 -146 -97 -21 -6 -21 -6 -8 31 7 21 13 64 14 96 0
31 2 57 6 57 3 0 33 -19 67 -42z m-468 -52 c64 -23 121 -65 152 -111 26 -38
25 -50 -6 -58 -14 -3 -23 3 -31 24 -17 41 -92 106 -137 119 -27 8 -263 10
-815 8 l-776 -3 -44 -30 c-23 -17 -57 -51 -74 -76 -26 -39 -34 -45 -53 -38
-20 8 -21 10 -7 36 19 36 72 86 116 109 82 42 102 43 880 41 700 -2 748 -3
795 -21z m-28 -102 c19 -9 46 -32 60 -51 22 -29 24 -36 12 -44 -22 -14 -34
-11 -59 16 -13 13 -44 32 -69 42 -42 17 -99 18 -731 18 -632 0 -689 -1 -731
-18 -25 -10 -56 -29 -69 -42 -25 -27 -37 -30 -59 -16 -11 7 -9 16 13 44 54 70
8 67 844 67 679 0 757 -2 789 -16z m-72 -108 l40 -19 -33 -10 c-24 -7 -43 -7
-66 1 -50 18 -1284 17 -1311 -1 -16 -11 -28 -11 -60 -2 -38 11 -39 12 -18 23
51 27 126 30 753 29 619 -2 657 -3 695 -21z m-2391 -58 c32 -10 217 -106 411
-213 193 -107 358 -195 365 -197 7 -2 26 30 47 77 19 44 36 81 38 83 2 2 184
-93 405 -212 220 -119 405 -216 411 -216 5 0 190 97 410 216 221 118 403 214
405 211 2 -2 20 -39 39 -83 21 -47 40 -78 47 -76 7 2 166 88 353 190 186 103
362 197 391 209 185 79 385 24 495 -138 167 -246 207 -524 126 -867 l-22 -93
-252 148 -252 147 -3 317 c-3 295 -4 318 -22 338 -13 15 -31 21 -60 21 -33 0
-101 -34 -415 -207 -207 -114 -390 -215 -407 -225 l-31 -18 -19 92 c-10 51
-23 92 -27 92 -5 -1 -177 -90 -382 -199 l-375 -197 -377 200 c-208 110 -380
198 -382 196 -2 -2 -13 -43 -25 -92 l-21 -89 -405 224 c-343 189 -410 223
-446 223 -29 0 -46 -6 -60 -21 -18 -20 -19 -43 -22 -338 l-3 -318 -249 -146
c-137 -80 -251 -142 -254 -139 -11 20 -47 200 -57 287 -27 240 33 484 165 669
47 66 92 102 170 137 94 41 180 43 290 7z m1939 -108 l-261 -78 -246 73 c-135
40 -252 76 -259 78 -6 3 222 6 508 6 l520 0 -262 -79z m-1658 -233 l240 -133
0 -334 c1 -327 2 -337 27 -433 22 -84 23 -97 9 -93 -9 2 -41 10 -71 16 -81 17
-226 91 -299 152 l-64 53 47 7 c45 6 80 26 99 55 6 10 14 8 35 -7 35 -26 111
-36 134 -18 17 12 15 16 -17 57 -37 46 -44 81 -24 124 9 19 21 26 56 30 64 7
71 18 37 63 -22 29 -30 51 -35 105 -4 43 -12 76 -23 88 -12 14 -15 28 -10 57
4 30 0 53 -20 98 -24 55 -28 58 -53 51 -16 -3 -55 -33 -88 -65 -33 -32 -72
-64 -87 -69 -32 -12 -37 -40 -9 -48 19 -5 19 -5 0 -36 -12 -20 -19 -50 -19
-82 0 -47 -6 -62 -52 -128 -11 -15 -10 -21 7 -33 12 -9 34 -14 53 -12 l34 4
-6 -39 c-9 -52 -43 -131 -66 -152 -18 -16 -20 -15 -46 24 -49 75 -56 128 -61
478 -3 178 -3 330 1 338 3 8 11 15 18 15 7 -1 121 -60 253 -133z m3062 -209
c-4 -372 -9 -410 -61 -489 -26 -39 -28 -40 -46 -24 -23 21 -57 100 -66 151
l-6 40 39 -4 c47 -5 75 19 55 46 -44 61 -52 80 -52 127 0 32 -7 62 -19 82 -19
31 -19 31 0 36 28 7 23 36 -8 49 -16 6 -55 38 -88 69 -33 32 -72 61 -88 64
-25 7 -29 3 -49 -41 -13 -29 -23 -70 -23 -99 0 -28 -8 -64 -18 -82 -10 -19
-17 -54 -17 -84 0 -40 -6 -60 -25 -85 -14 -18 -25 -39 -25 -47 0 -16 29 -27
71 -27 22 0 30 -8 43 -40 18 -45 14 -60 -26 -111 -34 -45 -35 -57 -3 -65 35
-9 88 3 118 26 24 19 25 19 43 -1 27 -30 68 -49 105 -49 32 0 32 0 13 -21 -61
-68 -239 -165 -344 -189 -30 -6 -62 -14 -71 -16 -13 -3 -11 10 10 88 26 91 26
99 26 432 l0 339 240 133 c132 73 248 133 258 133 18 1 19 -14 14 -341z
m-1997 -157 l305 -161 -462 0 -463 0 0 140 0 141 78 -42 c42 -23 81 -46 87
-51 22 -20 34 -4 50 70 9 42 18 83 20 90 5 15 -31 32 385 -187z m1064 109 c11
-49 23 -90 28 -90 5 0 48 22 96 49 l87 50 5 -137 c3 -75 5 -138 4 -140 0 -1
-207 -1 -459 0 l-459 3 335 177 c184 97 337 177 340 177 3 1 13 -39 23 -89z
m-1755 -258 c-3 -345 4 -404 62 -513 43 -81 97 -125 237 -198 280 -145 383
-302 383 -583 0 -213 -29 -364 -132 -695 -9 -29 -15 -33 -46 -33 -30 0 -34 3
-28 18 185 449 208 815 64 1031 -56 84 -115 131 -254 203 -191 99 -265 186
-315 370 -36 135 -40 193 -33 470 l6 267 29 -15 29 -15 -2 -307z m2101 -257
c-15 -112 -60 -255 -99 -317 -50 -79 -105 -123 -244 -194 -103 -54 -145 -82
-192 -129 -109 -109 -155 -239 -155 -436 0 -181 44 -389 130 -604 16 -41 30
-78 30 -80 0 -3 -15 -5 -34 -5 -33 0 -34 1 -54 68 -96 317 -122 457 -122 665
0 283 113 444 420 597 134 67 204 149 242 285 21 76 22 96 20 397 l-2 317 28
15 27 14 9 -251 c6 -186 5 -276 -4 -342z m-2420 571 c0 -16 27 -29 42 -19 7 3
8 1 4 -6 -4 -6 3 -28 15 -49 15 -24 25 -60 28 -102 6 -71 8 -68 -51 -71 -26
-1 -32 -17 -15 -43 12 -18 13 -29 4 -59 -11 -33 -15 -36 -59 -42 -26 -4 -57
-4 -69 0 -23 7 -22 1 -3 118 6 36 6 37 -25 37 -31 0 -31 1 -31 50 0 28 6 63
14 78 15 29 65 78 106 105 31 20 40 21 40 3z m2736 -15 c80 -59 98 -86 104
-156 l5 -65 -34 0 -34 0 8 -42 c21 -113 13 -126 -71 -113 -38 5 -47 11 -58 38
-12 27 -11 35 1 55 17 28 11 51 -14 52 -47 1 -61 5 -55 14 3 6 6 35 7 67 1 41
7 64 23 84 12 15 22 34 22 41 0 7 9 16 20 19 11 3 20 13 20 21 0 21 12 17 56
-15z m-3121 -361 c3 -11 4 -24 1 -28 -6 -9 -456 -297 -465 -297 -2 0 -10 14
-18 32 l-12 32 217 126 c119 70 226 133 237 141 27 18 33 17 40 -6z m3705
-120 c124 -72 229 -135 233 -139 10 -10 -12 -61 -26 -61 -11 0 -432 264 -456
285 -15 15 -5 59 12 52 7 -3 113 -64 237 -137z m-1020 65 l0 -45 -960 0 -960
0 0 38 c0 21 3 42 7 45 3 4 435 7 960 7 l953 0 0 -45z m-2633 -93 c57 -101
179 -203 324 -272 l84 -39 -60 -1 c-72 0 -170 26 -280 74 -44 19 -81 31 -83
26 -5 -13 72 -141 100 -166 84 -76 190 -114 348 -123 l115 -6 -60 -23 c-119
-47 -235 -52 -365 -18 -60 16 -65 14 -75 -26 -7 -27 -4 -29 61 -59 95 -43 237
-77 352 -85 l97 -7 -40 -17 c-109 -46 -258 -56 -375 -25 -212 55 -429 221
-575 439 l-54 81 67 42 c37 23 137 87 222 142 85 55 160 100 165 100 6 1 20
-16 32 -37z m3606 -103 c122 -78 223 -142 224 -143 8 -7 -120 -180 -179 -242
-240 -252 -526 -351 -778 -268 l-85 28 95 8 c119 11 240 39 333 78 104 44 102
42 83 79 -9 17 -18 31 -19 31 -1 0 -24 -7 -51 -15 -119 -36 -276 -27 -383 22
l-38 17 110 7 c156 10 284 58 352 131 27 29 93 139 93 155 0 6 -45 -7 -107
-33 -126 -51 -191 -66 -265 -62 l-53 3 50 19 c97 36 189 98 270 180 45 45 87
96 94 114 7 17 18 32 23 32 5 0 109 -64 231 -141z m-2503 1 l0 -90 -179 0
-179 0 -11 50 c-6 28 -11 69 -11 90 l0 40 190 0 190 0 0 -90z m1090 80 c0 -7
-178 -10 -515 -10 -337 0 -515 3 -515 10 0 7 178 10 515 10 337 0 515 -3 515
-10z m435 -25 c-3 -19 -7 -52 -11 -72 -11 -79 4 -73 -190 -73 l-174 0 0 90 0
90 190 0 191 0 -6 -35z m-1205 -85 l0 -40 250 0 250 0 0 40 0 40 65 0 c80 0
86 -18 8 -22 l-58 -3 -3 -37 -3 -38 -260 0 -259 0 0 40 0 40 -60 0 c-33 0 -60
4 -60 10 0 6 28 10 65 10 l65 0 0 -40z m1150 -128 c0 -4 -11 -24 -25 -45 l-26
-37 -848 0 -848 0 -27 38 c-14 21 -26 41 -26 45 0 4 405 7 900 7 495 0 900 -3
900 -8z m-1957 -109 c15 -31 25 -58 23 -61 -3 -2 -58 -4 -123 -4 -127 0 -228
18 -291 52 l-37 19 35 -7 c19 -4 78 -7 130 -7 86 1 101 4 160 32 36 17 67 31
70 32 3 0 17 -25 33 -56z m2282 1 c58 -16 152 -18 210 -4 52 12 56 5 9 -15
-77 -32 -168 -47 -287 -47 -65 0 -120 2 -123 4 -2 3 10 30 27 61 l30 57 42
-22 c23 -11 65 -27 92 -34z m-561 -82 c-102 -53 -143 -82 -224 -157 -30 -28
-98 -84 -151 -123 -109 -81 -211 -176 -256 -240 l-31 -42 -52 65 c-58 73 -131
138 -275 247 -55 41 -109 85 -120 98 -39 44 -131 108 -220 153 l-90 46 755 0
755 0 -91 -47z m-1435 -172 c123 -62 190 -116 236 -191 83 -131 100 -330 48
-573 l-16 -79 -24 53 c-21 47 -22 58 -11 89 17 51 14 158 -7 220 -9 28 -32 72
-51 96 l-34 45 28 5 c44 10 57 20 60 49 6 50 -9 56 -137 56 l-117 0 4 38 c3
30 -2 45 -21 68 -23 26 -31 29 -90 29 l-65 0 39 33 c22 19 39 37 39 40 -1 4
-9 17 -19 29 l-19 23 -44 -20 c-67 -29 -174 -44 -264 -35 l-79 8 65 13 c78 16
171 61 225 107 l39 34 49 -39 c27 -21 102 -65 166 -98z m1896 39 c33 -16 89
-35 125 -43 l65 -13 -79 -8 c-90 -9 -190 5 -261 35 l-47 20 -19 -22 c-10 -13
-18 -26 -19 -30 0 -3 18 -21 39 -40 l39 -33 -59 3 c-55 4 -61 2 -90 -27 -26
-27 -30 -37 -27 -71 l4 -40 -117 0 c-128 0 -143 -6 -137 -56 3 -29 16 -39 61
-49 l28 -6 -29 -34 c-64 -72 -95 -216 -69 -314 14 -50 13 -56 -6 -100 l-21
-46 -19 75 c-27 109 -34 325 -13 413 37 159 120 256 290 343 115 58 183 101
205 128 12 14 18 12 55 -20 22 -19 68 -48 101 -65z m-2155 -189 c-20 -37 -8
-74 27 -89 28 -12 32 -19 35 -61 l3 -47 -68 19 c-38 11 -75 17 -83 14 -21 -8
-17 -59 9 -97 20 -30 30 -35 78 -41 31 -4 84 -17 118 -29 43 -14 77 -20 107
-16 39 4 47 1 64 -21 12 -15 20 -40 20 -65 l0 -40 -21 27 c-11 14 -28 26 -37
26 -28 0 -81 -38 -102 -72 -20 -32 -20 -32 -20 -7 0 44 -49 128 -91 156 -26
17 -87 37 -181 59 -207 47 -264 71 -336 138 -40 37 -70 91 -47 82 9 -3 53 -10
99 -16 132 -16 290 14 391 74 22 13 41 25 43 25 1 1 -2 -8 -8 -19z m182 -12
c13 -15 15 -25 7 -45 -18 -49 -4 -63 62 -63 52 0 59 -2 59 -20 0 -11 4 -20 10
-20 5 0 7 -6 4 -13 -2 -7 14 -30 37 -52 84 -79 118 -210 84 -318 -14 -45 -15
-59 -5 -78 10 -20 10 -22 -1 -11 -16 14 -49 16 -49 2 0 -5 -4 -10 -10 -10 -5
0 -10 9 -10 20 0 19 -11 24 -65 32 -10 2 -30 19 -43 38 -28 43 -63 47 -73 10
-6 -21 -7 -22 -8 -4 -1 11 13 33 30 50 l30 29 21 -27 c11 -17 29 -28 43 -28
67 0 72 125 8 200 -26 32 -48 37 -85 20 -17 -8 -34 -7 -63 3 -37 13 -40 17
-38 48 1 19 -4 48 -13 66 -9 21 -12 45 -8 71 5 34 3 42 -14 51 -11 6 -30 11
-41 11 -18 0 -19 3 -9 25 20 45 105 53 140 13z m1804 18 c12 -4 26 -18 32 -31
11 -23 9 -25 -11 -25 -40 0 -60 -23 -55 -61 3 -19 -1 -49 -8 -68 -8 -18 -14
-50 -14 -71 0 -34 -3 -38 -37 -48 -28 -9 -47 -9 -75 0 -35 10 -41 9 -64 -13
-50 -45 -68 -127 -42 -184 16 -35 59 -34 87 3 l21 27 30 -33 c16 -18 30 -40
29 -50 0 -10 -4 -7 -11 11 -14 38 -40 34 -69 -10 -13 -21 -33 -39 -44 -41 -55
-8 -65 -13 -65 -32 0 -11 -4 -20 -10 -20 -5 0 -10 5 -10 10 0 14 -33 12 -49
-2 -11 -11 -11 -9 -2 10 10 19 9 33 -5 74 -36 109 -1 243 84 325 24 23 41 46
37 52 -3 6 -1 11 4 11 6 0 11 9 11 20 0 17 7 20 53 20 65 0 77 10 67 57 -11
47 -4 61 34 72 31 9 40 8 82 -3z m209 -56 c85 -29 202 -41 292 -30 43 6 85 13
95 16 16 5 16 3 2 -25 -8 -16 -32 -45 -54 -65 -67 -61 -136 -88 -330 -131 -63
-14 -134 -35 -156 -46 -50 -23 -89 -79 -109 -152 -7 -28 -14 -44 -14 -33 -1
25 -62 83 -96 92 -23 6 -33 2 -52 -20 l-23 -27 0 36 c0 20 8 50 17 65 15 27
20 28 63 23 34 -4 65 1 110 16 35 12 88 25 119 29 48 6 58 11 78 41 28 41 30
87 5 95 -9 3 -48 -3 -86 -14 -58 -16 -67 -17 -62 -4 3 9 6 30 6 48 0 27 5 35
33 47 35 15 47 52 28 88 -10 18 -7 18 33 -5 23 -13 69 -33 101 -44z m-1318
-122 c33 -35 73 -81 87 -102 l26 -39 0 -363 0 -364 -181 0 -181 0 4 23 c3 12
21 76 41 143 98 334 117 654 50 831 -9 23 72 -45 154 -129z m440 60 c-16 -63
-18 -98 -14 -243 7 -225 39 -394 127 -657 l9 -28 -185 0 -184 0 0 364 0 364
43 58 c40 55 202 214 217 214 4 0 -2 -33 -13 -72z m-1753 -132 c16 -10 58 -29
95 -42 l66 -23 -147 -1 c-112 0 -148 3 -148 13 1 14 18 95 25 115 4 10 15 6
43 -15 20 -16 50 -37 66 -47z m3055 13 c18 -85 29 -79 -136 -79 l-148 0 68 24
c67 24 154 74 177 101 18 22 27 11 39 -46z m-2594 -172 c22 -22 39 -54 51 -92
32 -111 3 -347 -62 -492 -20 -47 -26 -53 -54 -53 l-31 0 6 63 c5 56 35 567 35
595 0 21 21 13 55 -21z m2069 -39 c3 -40 10 -158 16 -263 6 -104 13 -223 16
-262 l6 -73 -32 0 c-27 0 -34 5 -51 46 -11 25 -32 89 -46 142 -34 126 -38 310
-10 384 17 43 66 98 87 98 5 0 11 -33 14 -72z m545 -203 c0 -44 -4 -98 -8
-120 -6 -35 -8 -37 -15 -17 -4 12 -29 50 -56 83 -27 34 -46 67 -43 75 6 16 19
18 28 4 10 -16 55 -12 62 6 17 45 -62 107 -114 88 -24 -8 -31 -5 -60 27 -23
26 -30 41 -26 58 4 15 -2 30 -18 48 -13 14 38 -19 113 -73 l138 -99 -1 -80z
m-2974 245 c-11 -12 -15 -28 -12 -41 4 -15 -4 -33 -24 -59 -29 -35 -32 -37
-60 -27 -52 20 -133 -41 -116 -87 7 -18 52 -22 62 -6 9 15 22 12 29 -6 4 -10
-6 -30 -25 -52 -18 -20 -44 -56 -59 -79 l-27 -43 -7 53 c-3 28 -6 81 -6 117
l1 65 127 92 c70 51 129 92 131 93 2 0 -4 -9 -14 -20z m39 -25 c-9 -21 14 -45
42 -45 16 0 30 10 43 31 14 23 20 26 24 15 3 -9 2 -18 -3 -21 -15 -10 -12 -45
5 -51 23 -9 19 -33 -5 -27 -11 3 -20 0 -20 -6 0 -6 -5 -11 -11 -11 -7 0 -35
-20 -63 -43 -28 -24 -71 -57 -96 -72 -25 -16 -58 -40 -75 -54 -23 -20 -21 -17
9 17 25 30 35 49 31 60 -4 10 -9 25 -12 34 -6 20 -37 32 -55 23 -7 -4 -4 1 6
9 23 19 32 20 41 6 3 -5 17 -10 30 -10 32 0 109 91 100 120 -3 11 -3 24 0 30
9 15 15 12 9 -5z m2566 -4 c0 -27 26 -44 58 -38 24 5 33 -1 67 -43 43 -53 72
-68 102 -51 15 7 27 5 51 -9 18 -11 32 -22 32 -25 0 -3 -11 2 -25 11 -29 19
-65 10 -65 -16 0 -10 -4 -22 -10 -25 -16 -10 -12 -19 27 -66 31 -37 32 -40 7
-18 -16 14 -46 36 -67 49 -21 12 -64 44 -95 71 -31 27 -63 49 -69 49 -7 0 -13
5 -13 11 0 6 -9 9 -20 6 -24 -6 -28 18 -5 27 17 6 20 41 5 51 -11 7 -2 35 11
35 5 0 9 -8 9 -19z m-2492 -186 c-104 -99 -322 -284 -329 -279 -14 8 -10 34 5
34 8 0 37 29 66 65 30 39 75 81 108 102 31 20 74 51 95 69 22 19 45 30 54 27
12 -5 12 -8 1 -18z m523 -25 c4 0 -8 -26 -27 -57 -74 -124 -28 -253 91 -253
20 0 45 5 57 11 18 10 19 8 13 -12 -4 -12 -14 -37 -21 -56 l-14 -33 -175 0
-174 0 16 38 c8 20 25 77 38 125 18 74 24 85 35 72 27 -32 58 -9 85 65 27 72
28 87 11 112 -25 35 -19 39 20 13 20 -14 40 -25 45 -25z m1525 16 c-20 -31
-20 -54 -1 -97 45 -98 62 -114 93 -86 19 17 20 16 26 -22 3 -22 19 -79 35
-126 l28 -85 -172 0 -173 0 -21 49 c-26 61 -26 64 -2 51 28 -15 87 -12 121 5
70 36 80 151 23 244 l-31 49 29 12 c15 7 34 19 40 26 19 23 23 7 5 -20z m541
-21 c28 -22 70 -52 92 -67 22 -15 62 -55 87 -88 26 -33 53 -60 61 -60 7 0 13
-9 13 -21 0 -11 -4 -19 -10 -17 -26 8 -336 294 -327 300 13 8 17 6 84 -47z
m-2531 -101 c-3 -8 -18 -14 -34 -14 -40 0 -52 -18 -59 -84 -7 -66 -11 -68
-121 -64 l-74 3 144 127 143 127 3 -41 c2 -22 1 -47 -2 -54z m2560 -56 l116
-103 -73 -3 c-111 -5 -119 -1 -119 56 0 60 -20 90 -63 94 -31 3 -32 4 -35 57
l-3 54 30 -26 c17 -14 83 -72 147 -129z m-1951 58 c11 -11 26 -15 41 -12 l22
6 -16 -50 c-16 -50 -16 -51 -29 -26 -20 38 -51 52 -71 32 -13 -12 -13 -20 -4
-41 17 -38 15 -45 -15 -45 -36 0 -49 9 -62 42 -12 32 -1 75 29 116 l23 31 32
-18 c18 -9 41 -25 50 -35z m1278 12 c47 -73 31 -148 -32 -148 -38 0 -43 8 -24
41 14 23 14 30 4 43 -19 23 -29 20 -61 -14 l-28 -30 -6 24 c-3 13 -9 31 -12
40 -4 12 0 16 15 16 12 0 29 9 38 20 10 11 23 20 29 20 6 0 17 7 24 15 18 22
23 19 53 -27z m-1834 -176 c-3 -62 -9 -116 -12 -119 -4 -3 -22 10 -42 30 -37
37 -40 50 -29 131 6 42 9 46 35 46 16 0 34 6 41 14 7 8 13 13 14 12 0 0 -3
-52 -7 -114z m2359 83 c2 -2 5 -34 8 -71 6 -69 6 -69 -30 -103 -20 -19 -38
-32 -41 -29 -3 3 -9 53 -12 111 l-6 106 39 -6 c21 -3 40 -7 42 -8z m-2506
-292 c3 -66 10 -108 21 -130 30 -56 56 -63 247 -63 l170 0 58 -58 c94 -97 55
-92 793 -92 619 0 640 1 693 21 40 14 69 35 105 75 l50 54 171 0 c191 0 217 7
247 63 11 22 18 64 21 130 l4 97 44 0 c41 0 44 -2 40 -22 -3 -13 -10 -70 -16
-128 -22 -197 -26 -200 -287 -200 l-188 0 -20 -52 c-11 -29 -32 -61 -48 -72
-28 -21 -36 -21 -790 -24 -419 -2 -776 0 -794 3 -44 8 -89 53 -103 103 l-11
42 -189 0 c-202 0 -228 5 -256 48 -16 24 -43 193 -44 270 0 31 2 32 39 32 l39
0 4 -97z m1288 7 c982 0 1156 2 1185 14 l35 15 0 -44 c0 -48 -15 -95 -33 -107
-7 -4 -98 -8 -204 -8 l-192 0 -17 -35 c-21 -44 -78 -92 -124 -105 -52 -15
-1252 -13 -1301 1 -49 15 -102 59 -123 104 l-17 35 -193 0 c-227 0 -227 0
-234 100 l-4 60 35 -15 c32 -13 187 -15 1187 -15z m-1320 -329 c0 -9 -7 -54
-15 -101 -27 -152 -16 -198 51 -220 70 -23 122 32 143 151 25 142 32 169 47
169 8 0 14 -6 14 -14 0 -24 -50 -249 -62 -279 -15 -38 -61 -75 -104 -83 -49
-9 -120 20 -146 60 -21 34 -21 54 3 273 l12 102 28 -22 c16 -11 29 -28 29 -36z
m2720 -138 c11 -107 11 -137 0 -162 -31 -76 -143 -102 -212 -49 -43 33 -50 51
-82 206 -30 143 -30 142 -11 142 16 0 16 -1 40 -130 22 -117 32 -143 61 -171
30 -28 80 -30 117 -6 42 27 47 68 25 201 l-20 118 28 23 29 23 6 -31 c4 -18
13 -91 19 -164z m-2320 98 c10 -22 36 -53 57 -70 l38 -32 -58 -113 c-115 -224
-266 -371 -482 -469 -46 -21 -44 -19 45 50 211 164 321 341 357 567 9 59 17
106 19 106 2 0 13 -18 24 -39z m1879 -32 c1 -54 38 -186 71 -258 59 -124 171
-255 313 -360 31 -24 57 -45 57 -47 0 -8 -147 70 -202 107 -126 86 -254 243
-334 412 l-37 78 43 36 c23 20 49 53 58 72 13 32 16 34 23 16 4 -11 8 -36 8
-56z m-1544 -100 c-10 -32 -72 -138 -121 -206 -82 -116 -233 -251 -337 -305
-34 -17 -30 -11 33 48 120 113 219 284 251 434 l11 50 85 0 c81 0 84 -1 78
-21z m255 14 c0 -19 -100 -205 -144 -271 -57 -85 -189 -213 -267 -259 -56 -33
-169 -86 -169 -79 0 2 28 24 63 49 186 133 316 320 347 500 l12 67 79 0 c43 0
79 -3 79 -7z m260 -7 c0 -33 -55 -186 -93 -261 -35 -66 -148 -225 -161 -225
-2 0 11 36 30 81 42 99 69 205 85 327 l12 92 63 0 c49 0 64 -3 64 -14z m275
-33 c24 -185 52 -295 106 -408 l29 -60 -40 45 c-109 121 -193 286 -225 438
l-7 32 66 0 65 0 6 -47z m295 -15 c18 -92 54 -182 105 -257 50 -76 185 -210
266 -265 65 -44 59 -45 -27 -6 -144 65 -281 181 -372 316 -36 54 -142 254
-142 268 0 3 35 6 79 6 l78 0 13 -62z m264 -5 c38 -152 139 -319 259 -429 l62
-57 -50 28 c-161 91 -324 264 -417 441 -21 40 -38 75 -38 78 0 3 38 6 84 6
l84 0 16 -67z"/>
<path d="M2762 5614 c-16 -11 -22 -25 -22 -53 0 -49 24 -71 78 -71 53 0 82 26
82 74 0 42 -29 66 -80 66 -20 0 -46 -7 -58 -16z"/>
<path d="M5520 5610 c-11 -11 -20 -33 -20 -50 0 -44 31 -70 83 -70 31 0 49 6
62 20 26 29 24 79 -4 102 -32 25 -95 24 -121 -2z"/>
<path d="M6598 8104 c-51 -58 -94 -109 -96 -112 -1 -4 18 -28 43 -52 39 -38
51 -45 86 -45 38 0 47 6 100 62 63 67 80 113 59 154 -14 27 -80 99 -91 99 -4
0 -49 -48 -101 -106z"/>
<path d="M1418 7896 c-27 -14 -93 -83 -93 -97 0 -9 207 -199 217 -199 4 0 26
23 48 51 48 61 52 99 15 150 -30 39 -102 99 -121 99 -7 0 -18 2 -26 5 -7 3
-25 -1 -40 -9z"/>
<path d="M704 6754 c-29 -61 -33 -78 -22 -85 21 -14 98 -42 102 -38 1 2 15 35
30 72 23 60 25 72 14 95 -10 21 -21 28 -51 30 l-38 3 -35 -77z"/>
<path d="M6617 1510 l-52 -49 43 -43 43 -43 50 53 c53 57 61 88 31 115 -31 28
-60 20 -115 -33z"/>
<path d="M5804 911 c-23 -10 -44 -23 -47 -27 -2 -5 9 -33 25 -61 l30 -53 49
26 c55 27 74 59 60 98 -16 40 -53 46 -117 17z"/>
<path d="M2818 824 c-11 -26 -16 -50 -11 -54 11 -12 110 -50 128 -50 8 0 22
11 31 25 26 39 8 66 -66 97 l-62 27 -20 -45z"/>
<path d="M2752 675 c-12 -25 -22 -51 -22 -58 0 -15 101 -57 138 -57 16 0 33 5
40 12 13 13 16 57 4 74 -6 9 -124 74 -135 74 -2 0 -13 -20 -25 -45z"/>
<path d="M3341 644 c-51 -36 -78 -155 -48 -214 28 -56 123 -74 170 -33 48 43
72 150 45 208 -23 51 -118 73 -167 39z"/>
<path d="M17320 7613 c-701 -53 -1120 -380 -1200 -938 -23 -161 -5 -412 39
-542 34 -100 107 -246 155 -309 65 -87 196 -184 331 -244 97 -44 303 -108 480
-150 448 -106 695 -181 861 -260 276 -130 371 -256 334 -442 -34 -173 -150
-281 -365 -340 -71 -20 -104 -22 -305 -22 -211 0 -231 2 -321 26 -286 78 -436
226 -494 491 l-17 77 -380 0 -381 0 7 -92 c18 -252 113 -504 258 -685 65 -81
216 -208 317 -268 233 -136 553 -205 950 -205 528 0 939 127 1176 365 163 162
260 358 300 603 24 144 17 412 -14 527 -57 210 -189 395 -368 517 -85 58 -347
163 -480 193 -65 15 -188 49 -273 77 -85 28 -191 59 -235 68 -127 27 -393 99
-462 125 -179 68 -313 167 -348 258 -28 74 -18 195 23 279 56 114 163 194 312
235 52 14 104 18 260 18 228 0 292 -12 436 -80 108 -52 186 -128 248 -243 45
-83 116 -154 181 -183 65 -29 165 -38 403 -39 l212 0 -4 23 c-3 12 -7 56 -11
98 -16 216 -110 453 -244 621 -207 260 -493 396 -915 437 -101 10 -358 12
-466 4z"/>
<path d="M9713 7506 c-23 -8 -57 -23 -76 -35 -55 -34 -136 -126 -165 -188
l-27 -58 0 -1175 c0 -1288 -2 -1240 60 -1455 111 -383 401 -679 782 -799 382
-119 935 -116 1310 9 190 63 328 149 468 291 169 170 272 378 332 669 15 71
17 224 20 1418 l4 1337 -385 0 -385 0 -4 -1257 c-3 -1097 -6 -1268 -19 -1335
-57 -277 -160 -416 -365 -494 -209 -80 -529 -71 -715 20 -159 77 -236 189
-299 441 -10 39 -14 343 -16 1338 l-4 1287 -237 -1 c-165 0 -250 -4 -279 -13z"/>
<path d="M12979 7501 c-105 -34 -200 -117 -248 -220 l-26 -56 -3 -1717 -2
-1718 380 0 380 0 2 1270 3 1269 150 -252 c83 -139 422 -710 755 -1270 l605
-1017 398 0 397 0 0 1865 0 1865 -385 0 -385 0 0 -1262 0 -1262 -744 1260
-744 1259 -239 2 c-205 2 -246 0 -294 -16z"/>
<path d="M15094 3090 c-39 -16 -64 -59 -64 -111 0 -68 26 -94 120 -120 70 -20
110 -41 110 -60 0 -20 -35 -39 -71 -39 -38 0 -79 26 -79 50 0 6 -20 10 -45 10
-35 0 -45 -4 -45 -16 0 -31 31 -80 63 -99 43 -27 158 -27 205 -2 64 35 80 134
29 184 -13 14 -54 32 -97 44 -41 12 -83 29 -94 39 -18 17 -18 18 4 40 27 27
72 21 110 -15 34 -32 90 -35 90 -5 0 34 -28 79 -60 95 -31 16 -140 20 -176 5z"/>
<path d="M9482 3078 c-8 -8 -12 -55 -12 -147 0 -148 10 -187 60 -223 39 -28
121 -34 176 -13 76 29 84 52 84 238 l0 157 -45 0 -45 0 0 -145 c0 -132 -2
-147 -20 -165 -25 -25 -61 -26 -91 -1 -23 18 -24 26 -27 165 l-3 146 -33 0
c-17 0 -37 -5 -44 -12z"/>
<path d="M10440 3071 c-6 -12 -10 -95 -10 -200 l0 -181 45 0 44 0 3 125 3 125
73 -125 74 -125 49 0 49 0 0 200 0 200 -45 0 -44 0 -3 -125 -3 -125 -73 125
-74 125 -39 0 c-28 0 -41 -5 -49 -19z"/>
<path d="M11410 3071 c-6 -12 -10 -95 -10 -200 l0 -181 45 0 45 0 0 200 0 200
-35 0 c-24 0 -37 -6 -45 -19z"/>
<path d="M12124 3073 c4 -10 34 -99 69 -198 l63 -180 44 0 45 0 67 198 67 197
-43 0 c-24 0 -48 -6 -54 -12 -5 -7 -25 -62 -42 -123 -18 -60 -35 -114 -38
-119 -3 -5 -22 49 -42 120 l-37 129 -52 3 c-47 3 -52 1 -47 -15z"/>
<path d="M13132 3078 c-8 -8 -12 -67 -12 -200 l0 -188 145 0 145 0 0 40 0 40
-100 0 -100 0 0 45 0 45 59 0 c66 0 91 15 91 56 0 23 -2 24 -75 24 l-75 0 0
35 0 35 100 0 100 0 0 40 0 40 -133 0 c-90 0 -137 -4 -145 -12z"/>
<path d="M14063 3079 c-10 -10 -13 -64 -13 -201 l0 -188 45 0 45 0 0 75 0 75
53 0 c64 0 77 -11 77 -65 0 -76 7 -85 59 -85 l47 0 -11 85 c-7 47 -17 91 -23
97 -8 8 -6 18 8 36 30 37 27 113 -4 149 -24 27 -27 28 -148 31 -90 2 -126 0
-135 -9z"/>
<path d="M16002 3078 c-8 -8 -12 -67 -12 -200 l0 -188 45 0 45 0 0 200 0 200
-33 0 c-18 0 -38 -5 -45 -12z"/>
<path d="M16710 3071 c-6 -12 -10 -95 -10 -200 l0 -181 103 0 c87 0 110 3 147
23 24 12 52 33 62 47 42 59 41 210 -3 271 -33 46 -74 59 -188 59 -89 0 -101
-2 -111 -19z m211 -80 c19 -15 24 -30 27 -88 4 -62 2 -72 -20 -98 -20 -23 -35
-29 -81 -33 l-57 -4 0 121 0 121 54 0 c38 0 61 -6 77 -19z"/>
<path d="M17823 3078 c-12 -16 -133 -358 -133 -375 0 -9 16 -13 45 -13 43 0
45 1 56 40 l12 40 73 0 73 0 12 -40 c12 -40 13 -40 62 -40 35 0 48 4 44 13 -2
6 -35 96 -72 200 l-68 187 -47 0 c-26 0 -52 -6 -57 -12z"/>
<path d="M18722 3078 c-8 -8 -12 -67 -12 -201 l0 -189 113 4 c129 4 162 17
199 75 20 33 23 51 23 128 0 153 -46 195 -216 195 -61 0 -99 -4 -107 -12z
m207 -92 c28 -30 38 -99 21 -150 -14 -43 -52 -66 -110 -66 l-40 0 0 120 0 120
53 0 c44 0 58 -4 76 -24z"/>
<path d="M10904 2350 c-65 -20 -127 -72 -158 -132 -38 -76 -48 -221 -21 -313
39 -137 122 -198 270 -199 158 -2 256 67 280 197 l7 37 -66 0 -66 0 -20 -40
c-25 -48 -64 -70 -127 -70 -100 0 -153 70 -153 201 0 102 26 155 93 188 38 18
56 22 91 17 43 -7 65 -23 113 -80 18 -22 29 -26 77 -26 62 0 65 4 45 71 -16
51 -62 105 -112 131 -47 24 -197 35 -253 18z"/>
<path d="M11710 2345 c-60 -19 -124 -75 -158 -139 -25 -48 -27 -59 -27 -176 0
-116 2 -129 27 -175 55 -105 134 -149 268 -149 106 0 172 26 230 91 53 60 74
128 74 233 0 116 -22 178 -88 246 -39 40 -64 56 -105 68 -66 19 -160 20 -221
1z m173 -119 c90 -37 129 -157 92 -283 -38 -128 -195 -163 -276 -63 -64 79
-59 248 9 313 49 47 114 59 175 33z"/>
<path d="M16208 2351 c-107 -35 -158 -129 -128 -235 19 -70 52 -94 187 -133
130 -37 167 -58 171 -95 5 -43 -30 -63 -110 -63 -66 0 -71 2 -99 33 -16 18
-29 39 -29 47 0 12 -15 15 -70 15 l-71 0 7 -37 c9 -51 41 -107 75 -132 92 -69
298 -62 377 12 73 68 76 205 6 266 -31 28 -58 38 -225 85 -83 23 -114 71 -70
110 47 43 142 28 186 -30 24 -31 30 -34 81 -34 52 0 54 1 54 27 0 50 -39 111
-88 140 -39 23 -59 28 -137 30 -49 1 -102 -2 -117 -6z"/>
<path d="M9520 2343 c-8 -3 -23 -12 -32 -21 -16 -14 -18 -42 -18 -309 l0 -293
65 0 65 0 0 207 0 207 123 -207 122 -207 73 0 72 0 0 315 0 315 -70 0 -70 0
-2 -200 -3 -200 -116 198 -117 197 -38 2 c-22 1 -46 -1 -54 -4z"/>
<path d="M12234 2336 c-18 -8 -34 -24 -37 -37 -4 -13 -7 -149 -7 -301 l0 -278
70 0 70 0 0 203 0 202 121 -202 120 -203 70 0 69 0 0 315 0 315 -65 0 -65 0 0
-207 0 -208 -123 207 c-122 208 -122 208 -157 207 -19 0 -49 -6 -66 -13z"/>
<path d="M17360 2343 c-8 -3 -23 -12 -32 -21 -16 -14 -18 -42 -18 -309 l0
-293 65 0 65 0 2 201 3 200 119 -200 120 -201 73 0 73 0 0 315 0 315 -70 0
-70 0 -2 -202 -3 -203 -119 203 -119 202 -36 -1 c-20 0 -43 -3 -51 -6z"/>
<path d="M10272 2327 c-11 -12 -35 -80 -167 -454 l-54 -153 74 0 74 0 17 60
17 60 117 0 118 0 19 -57 20 -58 71 -3 c40 -2 72 0 72 4 0 5 -191 536 -215
597 -6 14 -20 17 -80 17 -48 0 -76 -4 -83 -13z m85 -365 c-38 -2 -71 -1 -74 2
-4 4 54 202 65 220 3 5 22 -42 41 -105 l37 -114 -69 -3z"/>
<path d="M11367 2322 c-15 -16 -17 -53 -17 -310 l0 -292 65 0 65 0 0 310 0
310 -48 0 c-35 0 -54 -5 -65 -18z"/>
<path d="M12998 2323 c-13 -16 -218 -575 -218 -596 0 -4 32 -7 72 -5 l72 3 17
55 16 55 118 0 118 0 20 -57 19 -58 74 0 74 0 -36 98 c-19 53 -70 193 -112
309 l-77 213 -71 0 c-55 0 -74 -4 -86 -17z m117 -243 c19 -57 35 -108 35 -112
0 -4 -34 -8 -76 -8 -57 0 -75 3 -71 13 2 6 19 58 38 114 18 56 34 101 36 99 2
-2 19 -50 38 -106z"/>
<path d="M13473 2332 c-28 -18 -33 -70 -33 -338 l0 -274 220 0 220 0 0 60 0
60 -150 0 -150 0 0 250 0 250 -47 0 c-27 0 -53 -4 -60 -8z"/>
<path d="M14217 2322 c-15 -16 -17 -53 -17 -311 l0 -293 173 4 c189 3 219 12
279 75 55 57 73 117 73 238 0 94 -4 118 -24 163 -29 64 -87 116 -146 131 -24
6 -106 11 -183 11 -122 0 -141 -2 -155 -18z m306 -117 c49 -32 62 -69 62 -177
0 -82 -3 -101 -21 -125 -33 -45 -79 -63 -161 -63 l-73 0 0 196 0 197 83 -5
c57 -3 91 -10 110 -23z"/>
<path d="M14814 2326 c-18 -14 -19 -31 -22 -310 l-3 -296 231 0 230 0 0 60 0
60 -160 0 -160 0 0 75 0 75 100 0 c87 0 103 3 120 20 11 11 20 25 20 30 0 6 9
10 20 10 12 0 25 11 32 26 11 23 10 29 -11 45 -13 11 -29 19 -37 19 -8 0 -14
5 -14 10 0 13 6 13 30 -2 24 -15 38 -3 24 20 -13 21 -60 28 -80 11 -10 -8 -14
-8 -14 0 0 6 -9 11 -19 11 -15 0 -21 -8 -23 -32 l-3 -33 -17 30 c-13 25 -23
31 -52 32 -35 1 -36 0 -36 -38 0 -32 -3 -39 -20 -39 -18 0 -20 7 -20 60 l0 60
160 0 160 0 0 55 0 55 -208 0 c-164 0 -212 -3 -228 -14z"/>
<path d="M15326 2318 c-14 -19 -16 -66 -16 -310 l0 -288 220 0 220 0 0 60 0
60 -150 0 -150 0 0 250 0 250 -54 0 c-45 0 -58 -4 -70 -22z"/>
<path d="M16856 2318 c-12 -19 -216 -580 -216 -594 0 -2 33 -4 73 -4 l74 0 16
60 17 60 118 0 119 0 18 -60 18 -60 75 0 c55 0 73 3 69 13 -2 6 -53 146 -112
310 l-108 297 -73 0 c-65 0 -75 -3 -88 -22z m123 -244 c17 -56 31 -104 31
-108 0 -3 -33 -6 -74 -6 l-73 0 36 114 c20 63 39 112 43 108 3 -4 20 -52 37
-108z"/>
<path d="M17906 2318 c-9 -12 -16 -39 -16 -60 l0 -38 90 0 90 0 0 -250 0 -250
70 0 70 0 0 250 0 250 90 0 90 0 0 60 0 60 -234 0 c-231 0 -235 0 -250 -22z"/>
<path d="M18673 2328 c-9 -11 -106 -276 -204 -555 l-18 -53 74 0 75 0 17 60
16 60 118 0 117 0 19 -57 20 -58 71 -3 c40 -2 72 1 72 5 0 5 -49 143 -109 308
l-109 300 -74 3 c-52 2 -78 -1 -85 -10z m85 -366 c-39 -2 -73 -1 -75 2 -3 3
12 56 33 118 l38 113 37 -115 38 -115 -71 -3z"/>
</g>
</svg>
